HIERARCHY
ROOT Hips
{
	OFFSET 0.00000 0.00000 0.00000
	CHANNELS 6 Xposition Yposition Zposition Zrotation Yrotation Xrotation 
	JOINT LHipJoint
	{
		OFFSET 0 0 0
		CHANNELS 3 Zrotation Yrotation Xrotation
		JOINT LeftHip
		{
			OFFSET 1.17584 -1.63585 1.00361
			CHANNELS 3 Zrotation Yrotation Xrotation
			JOINT LeftKnee
			{
				OFFSET 2.23889 -6.15131 0.00000
				CHANNELS 3 Zrotation Yrotation Xrotation
				JOINT LeftAnkle
				{
					OFFSET 2.65161 -7.28525 0.00000
					CHANNELS 3 Zrotation Yrotation Xrotation
					JOINT LeftToe
					{
						OFFSET 0.24898 -0.68407 1.57235
						CHANNELS 3 Zrotation Yrotation Xrotation
						End Site
						{
							OFFSET 0.00000 -0.00000 0.85838
						}
					}
				}
			}
		}
	}
	JOINT RHipJoint
	{
		OFFSET 0 0 0
		CHANNELS 3 Zrotation Yrotation Xrotation
		JOINT RightHip
		{
			OFFSET -1.15592 -1.63585 1.00361
			CHANNELS 3 Zrotation Yrotation Xrotation
			JOINT RightKnee
			{
				OFFSET -2.34071 -6.43104 0.00000
				CHANNELS 3 Zrotation Yrotation Xrotation
				JOINT RightAnkle
				{
					OFFSET -2.59113 -7.11908 0.00000
					CHANNELS 3 Zrotation Yrotation Xrotation
					JOINT RightToe
					{
						OFFSET -0.17867 -0.49089 1.70981
						CHANNELS 3 Zrotation Yrotation Xrotation
						End Site
						{
							OFFSET -0.00000 -0.00000 0.89861
						}
					}
				}
			}
		}
	}
	JOINT lowerback
	{
		OFFSET 0 0 0
		CHANNELS 3 Zrotation Yrotation Xrotation
		JOINT Chest
		{
			OFFSET -0.02255 1.90764 -0.16605
			CHANNELS 3 Zrotation Yrotation Xrotation
			JOINT Chest2
			{
				OFFSET -0.00365 1.92150 -0.04898
				CHANNELS 3 Zrotation Yrotation Xrotation
				JOINT lowerneck
				{
					OFFSET 0 0 0
					CHANNELS 3 Zrotation Yrotation Xrotation
					JOINT Neck
					{
						OFFSET 0.00372 1.59170 0.08694
						CHANNELS 3 Zrotation Yrotation Xrotation
						JOINT Head
						{
							OFFSET 0.12558 1.58643 -0.08078
							CHANNELS 3 Zrotation Yrotation Xrotation
							End Site
							{
								OFFSET 0.04211 1.60835 -0.03803
							}
						}
					}
				}
				JOINT LeftCollar
				{
					OFFSET 0 0 0
					CHANNELS 3 Zrotation Yrotation Xrotation
					JOINT LeftShoulder
					{
						OFFSET 3.69324 0.96316 0.19077
CHANNELS 3 Zrotation Xrotation Yrotation
						JOINT LeftElbow
						{
OFFSET 0 -4.877960 -0.000000
CHANNELS 3 Zrotation Xrotation Yrotation
							JOINT LeftWrist
							{
OFFSET 0 -3.231690 0.000000
CHANNELS 3 Zrotation Xrotation Yrotation
								JOINT lhand
								{
									OFFSET 0 0 0
CHANNELS 3 Zrotation Xrotation Yrotation
									JOINT LFingers
									{
OFFSET 0 -0.731320 0.000000
CHANNELS 3 Zrotation Xrotation Yrotation
										End Site
										{
OFFSET 0 -0.589610 0.000000
										}
									}
								}
								JOINT LThumb
								{
OFFSET 0 0.000000 0.000000
CHANNELS 3 Zrotation Xrotation Yrotation
									End Site
									{
OFFSET 0 -0.598610 0.598610
									}
								}
							}
						}
					}
				}
				JOINT RightCollar
				{
					OFFSET 0 0 0
					CHANNELS 3 Zrotation Yrotation Xrotation
					JOINT RightShoulder
					{
						OFFSET -3.66103 0.75145 0.08281
CHANNELS 3 Zrotation Xrotation Yrotation
						JOINT RightElbow
						{
OFFSET 0 -4.914300 0.000000
CHANNELS 3 Zrotation Xrotation Yrotation
							JOINT RightWrist
							{
OFFSET 0 -3.290930 0.000000
CHANNELS 3 Zrotation Xrotation Yrotation
								JOINT rhand
								{
									OFFSET 0 0 0
CHANNELS 3 Zrotation Xrotation Yrotation
									JOINT RFingers
									{
OFFSET 0 -0.545120 0.000000
CHANNELS 3 Zrotation Xrotation Yrotation
										End Site
										{
OFFSET 0 -0.439490 0.000000
										}
									}
								}
								JOINT RThumb
								{
OFFSET 0 0.000000 0.000000
CHANNELS 3 Zrotation Xrotation Yrotation
									End Site
									{
OFFSET 0 -0.446200 0.446200
									}
								}
							}
						}
					}
				}
			}
		}
	}
}
MOTION
Frames: 7
Frame Time: 0.008333333333333333
15.711700 16.504200 1.316000 122.644000 -88.603700 -123.293000 0.000000 0.000000 0.000000 -11.881300 -0.297100 -9.648200 2.144500 9.160700 26.299300 1.160000 10.408500 -26.559300 2.204900 -9.280400 -26.676500 0.000000 0.000000 0.000000 11.794200 6.603100 -9.403300 -3.158200 -10.946900 32.100900 -0.664500 -11.766100 -23.804700 -0.649300 5.154400 -14.349400 -2.145500 -0.582100 -7.705500 -0.956000 -0.496800 2.801800 0.132400 -0.323100 7.283300 -1.752100 -0.318200 -3.023800 4.008400 -0.820900 10.022300 1.604500 -0.354000 3.833300 0.000000 0.000000 0.000000 6.858400 -2.173200 -37.528500 35.193900 -44.950100 14.950200 32.050700 -5.470700 33.949000 0.000000 0.000000 0.000000 -7.125000 0.000000 0.000000 -0.309200 -8.479200 -0.351400 0.000000 0.000000 0.000000 -4.959600 -2.816600 44.594900 -33.028800 -43.352100 -13.441800 -38.425400 33.305600 23.041000 0.000000 0.000000 0.000000 7.125000 0.000000 -0.000000 -10.792500 58.151000 3.499100
15.708494 16.503699 1.314595 124.974042 -88.569801 -125.646102 0.000000 0.000000 0.000000 -11.878238 -0.286580 -9.602421 2.147223 9.166345 26.316945 1.186503 10.337245 -26.698882 2.118349 -9.108300 -26.134714 0.000000 0.000000 0.000000 11.787946 6.582468 -9.389935 -3.152789 -10.938383 32.072342 -0.661207 -11.724503 -23.734560 -0.654423 5.174291 -14.406359 -1.979337 -0.456134 -7.685429 -1.077850 -0.338725 2.826775 -0.066988 -0.235492 7.293131 -1.510138 -0.327684 -3.169689 4.119959 -0.863215 10.072839 1.598207 -0.359786 3.880256 0.000000 0.000000 0.000000 7.158103 -2.127412 -37.813460 35.359629 -45.067261 15.067362 31.678841 -5.332821 33.848615 0.000000 0.000000 0.000000 -7.125000 0.000000 0.000000 -0.487589 -8.260368 -0.552602 0.000000 0.000000 0.000000 -4.697178 -2.787060 44.254932 -33.080685 -43.391988 -13.477489 -38.359140 33.285396 23.052119 0.000000 0.000000 0.000000 7.125000 0.000000 0.000000 -10.710878 58.146814 3.471162
15.705584 16.503603 1.312191 129.428165 -88.676454 -130.121112 0.000000 0.000000 0.000000 -11.695224 -0.225097 -9.626562 2.157048 9.185797 26.378109 1.181900 10.327509 -26.657124 2.140070 -9.151842 -26.271589 0.000000 0.000000 0.000000 11.964634 6.516546 -9.370611 -3.148363 -10.931440 32.048901 -0.664389 -11.684488 -23.722698 -0.663116 5.208061 -14.502878 -1.785490 -0.407107 -7.669659 -1.069752 -0.293941 2.860164 -0.161182 -0.205045 7.317555 -1.311064 -0.310224 -3.374146 4.046254 -0.851829 10.226551 1.540850 -0.346751 3.971681 0.000000 0.000000 0.000000 7.285247 -2.140157 -37.958679 35.441192 -45.124536 15.125136 31.728415 -5.478167 33.857516 0.000000 0.000000 0.000000 -7.125000 0.000000 0.000000 -0.462718 -8.284852 -0.524654 0.000000 0.000000 0.000000 -4.597216 -2.834472 44.173567 -33.049522 -43.368086 -13.456009 -38.256679 33.284628 23.352184 0.000000 0.000000 0.000000 7.125000 0.000000 0.000000 -10.574817 58.469778 3.508722
15.702080 16.504308 1.309982 132.408165 -88.739194 -133.071865 0.000000 0.000000 0.000000 -11.579684 -0.192104 -9.693937 2.166126 9.203852 26.435162 1.191020 10.267991 -26.676427 2.103326 -9.078148 -26.039923 0.000000 0.000000 0.000000 12.068140 6.479980 -9.382912 -3.140368 -10.918852 32.006736 -0.659850 -11.671932 -23.670608 -0.656008 5.180539 -14.424070 -1.692124 -0.395314 -7.731953 -1.036640 -0.288134 2.861066 -0.178584 -0.198574 7.353878 -1.232880 -0.313214 -3.419034 3.984322 -0.860662 10.334516 1.506904 -0.350160 4.017797 0.000000 0.000000 0.000000 7.278799 -2.106379 -37.962339 35.479075 -45.151233 15.152037 31.853358 -5.491373 33.792145 0.000000 0.000000 0.000000 -7.125000 0.000000 0.000000 -0.380306 -8.254043 -0.431002 0.000000 0.000000 0.000000 -4.572206 -2.858048 44.193752 -32.977583 -43.312803 -13.406745 -38.112725 33.093486 23.240787 0.000000 0.000000 0.000000 7.125000 0.000000 0.000000 -10.402371 58.302972 3.408925
15.699689 16.505605 1.307073 129.861865 -88.756633 -130.503159 0.000000 0.000000 0.000000 -11.589445 -0.177940 -9.733648 2.169251 9.210099 26.454905 1.211144 10.153181 -26.733839 2.103426 -9.078354 -26.040693 0.000000 0.000000 0.000000 12.052664 6.468071 -9.378055 -3.136965 -10.913447 31.988618 -0.652857 -11.706186 -23.643721 -0.644885 5.137451 -14.300918 -1.737956 -0.417666 -7.787502 -1.014384 -0.313235 2.836137 -0.133173 -0.213320 7.360112 -1.323354 -0.340843 -3.215251 3.989940 -0.890562 10.255522 1.521764 -0.371184 3.951386 0.000000 0.000000 0.000000 7.211126 -1.966591 -37.912453 35.572283 -45.216545 15.218153 31.743737 -5.363339 33.737191 0.000000 0.000000 0.000000 -7.125000 0.000000 0.000000 -0.427317 -8.163027 -0.483619 0.000000 0.000000 0.000000 -4.596325 -2.829940 44.247501 -32.915347 -43.264860 -13.363965 -38.100930 33.119470 23.149521 0.000000 0.000000 0.000000 7.125000 0.000000 0.000000 -10.391626 58.193603 3.378005
15.699207 16.505593 1.305097 128.482397 -88.820001 -129.162497 0.000000 0.000000 0.000000 -11.542398 -0.204027 -9.715187 2.176677 9.224750 26.500974 1.219117 10.097097 -26.748606 2.117697 -9.107097 -26.130849 0.000000 0.000000 0.000000 12.112515 6.477223 -9.300900 -3.132267 -10.906243 31.964220 -0.649903 -11.762113 -23.674043 -0.638267 5.111454 -14.226625 -1.654069 -0.394768 -7.735085 -1.012154 -0.293141 2.810749 -0.174420 -0.199145 7.301808 -1.432434 -0.392128 -3.081960 4.042762 -0.957772 10.221839 1.555257 -0.408531 3.917209 0.000000 0.000000 0.000000 7.190298 -1.850122 -37.993095 35.624250 -45.252796 15.254996 31.567955 -5.200932 33.630810 0.000000 0.000000 0.000000 -7.125000 0.000000 0.000000 -0.498857 -7.998260 -0.563450 0.000000 0.000000 0.000000 -4.602635 -2.710217 44.192686 -32.943281 -43.286424 -13.383167 -38.097783 33.112119 22.993564 0.000000 0.000000 0.000000 7.125000 0.000000 0.000000 -10.394017 58.011477 3.333116
15.699484 16.505704 1.304996 130.077761 -88.854291 -130.746321 0.000000 0.000000 0.000000 -11.491241 -0.218991 -9.737561 2.179656 9.230616 26.519428 1.208784 10.127880 -26.696543 2.139985 -9.151669 -26.271020 0.000000 0.000000 0.000000 12.153727 6.427005 -9.347298 -3.132688 -10.906840 31.966461 -0.652036 -11.718442 -23.648367 -0.647761 5.148498 -14.332499 -1.438266 -0.286206 -7.695937 -1.082474 -0.167746 2.767640 -0.351463 -0.125499 7.230688 -1.393029 -0.473285 -2.938378 4.093943 -1.073953 10.149254 1.559019 -0.464736 3.867407 0.000000 0.000000 0.000000 7.308362 -1.817876 -38.274712 35.617048 -45.247708 15.249908 31.507843 -5.202998 33.507203 0.000000 0.000000 0.000000 -7.125000 0.000000 0.000000 -0.503948 -7.850183 -0.568072 0.000000 0.000000 0.000000 -4.478262 -2.577365 43.979103 -32.972787 -43.309127 -13.403379 -38.100180 33.028943 22.878602 0.000000 0.000000 0.000000 7.125000 0.000000 0.000000 -10.401168 57.878038 3.301920
